<svg width="71" height="71" viewBox="0 0 71 71" fill="none" xmlns="http://www.w3.org/2000/svg">
<circle cx="35.5" cy="35.5" r="35.5" fill="#EDF7FE"/>
<circle cx="35.4996" cy="35.5" r="24.9596" fill="#FCFCFC" stroke="#CCEAFF"/>
<path d="M36 24.5C33.9233 24.5 31.8932 25.1158 30.1665 26.2696C28.4398 27.4233 27.094 29.0632 26.2993 30.9818C25.5045 32.9004 25.2966 35.0116 25.7018 37.0484C26.1069 39.0852 27.1069 40.9562 28.5754 42.4246C30.0438 43.8931 31.9148 44.8931 33.9516 45.2982C35.9884 45.7034 38.0996 45.4955 40.0182 44.7007C41.9368 43.906 43.5767 42.5602 44.7304 40.8335C45.8842 39.1068 46.5 37.0767 46.5 35C46.5 32.2152 45.3938 29.5445 43.4246 27.5754C41.4555 25.6062 38.7848 24.5 36 24.5ZM36 44.1C34.2002 44.1 32.4408 43.5663 30.9443 42.5664C29.4478 41.5665 28.2815 40.1452 27.5927 38.4824C26.9039 36.8196 26.7237 34.9899 27.0749 33.2247C27.426 31.4594 28.2927 29.838 29.5653 28.5653C30.838 27.2927 32.4595 26.426 34.2247 26.0749C35.9899 25.7237 37.8196 25.9039 39.4824 26.5927C41.1452 27.2815 42.5665 28.4478 43.5664 29.9443C44.5663 31.4408 45.1 33.2002 45.1 35C45.1 37.4135 44.1413 39.7281 42.4347 41.4347C40.7281 43.1412 38.4135 44.1 36 44.1Z" fill="#2F8975"/>
<path d="M35.9998 32.2C35.8142 32.2 35.6361 32.2737 35.5048 32.405C35.3736 32.5363 35.2998 32.7143 35.2998 32.9V40.6C35.2998 40.7856 35.3736 40.9637 35.5048 41.095C35.6361 41.2262 35.8142 41.3 35.9998 41.3C36.1855 41.3 36.3635 41.2262 36.4948 41.095C36.6261 40.9637 36.6998 40.7856 36.6998 40.6V32.9C36.6998 32.7143 36.6261 32.5363 36.4948 32.405C36.3635 32.2737 36.1855 32.2 35.9998 32.2Z" fill="#2F8975"/>
<path d="M35.9998 30.8C36.3864 30.8 36.6998 30.4866 36.6998 30.1C36.6998 29.7134 36.3864 29.4 35.9998 29.4C35.6132 29.4 35.2998 29.7134 35.2998 30.1C35.2998 30.4866 35.6132 30.8 35.9998 30.8Z" fill="#2F8975"/>
</svg>
