<svg id="Capa_1" enable-background="new 0 0 497 497" height="512" viewBox="0 0 497 497" width="512" xmlns="http://www.w3.org/2000/svg"><g><g><path d="m127.706 497c-54.945 0-99.647-44.82-99.647-99.912 0-32.09 15.654-62.38 41.372-81.041v-257.185c0-31.79 24.623-57.627 56.056-58.82.742-.028 1.483-.042 2.219-.042 32.133 0 58.274 26.212 58.274 58.43v257.618c25.72 18.661 41.371 48.951 41.371 81.04.001 55.092-44.7 99.912-99.645 99.912z" fill="#e8e8e8"/></g><g><path d="m127.706 456.153c-32.482 0-58.908-26.497-58.908-59.066 0-20.75 11.078-40.232 28.91-50.842 7.725-4.597 12.461-12.937 12.461-21.944v-265.439c0-9.522 7.37-17.642 16.859-18.002 9.977-.379 18.214 7.649 18.214 17.57v265.872c0 9.007 4.736 17.347 12.461 21.944 17.832 10.611 28.91 30.092 28.91 50.842.001 32.569-26.425 59.065-58.907 59.065z" fill="#f7f7f7"/></g><g><path d="m151.855 273.299h-18.482v15h18.482c4.143 0 7.5-3.358 7.5-7.5s-3.357-7.5-7.5-7.5z" fill="#a2abb8"/></g><g><path d="m151.855 247.885h-8.723c-4.143 0-7.5-3.358-7.5-7.5s3.357-7.5 7.5-7.5h8.723c4.143 0 7.5 3.358 7.5 7.5s-3.357 7.5-7.5 7.5z" fill="#a2abb8"/></g><g><path d="m151.855 207.471h-8.723c-4.143 0-7.5-3.358-7.5-7.5s3.357-7.5 7.5-7.5h8.723c4.143 0 7.5 3.358 7.5 7.5s-3.357 7.5-7.5 7.5z" fill="#a2abb8"/></g><g><path d="m151.855 167.056h-8.723c-4.143 0-7.5-3.358-7.5-7.5s3.357-7.5 7.5-7.5h8.723c4.143 0 7.5 3.358 7.5 7.5s-3.357 7.5-7.5 7.5z" fill="#a2abb8"/></g><g><path d="m151.855 126.642h-8.723c-4.143 0-7.5-3.358-7.5-7.5s3.357-7.5 7.5-7.5h8.723c4.143 0 7.5 3.358 7.5 7.5s-3.357 7.5-7.5 7.5z" fill="#a2abb8"/></g><g><path d="m151.855 86.227h-8.723c-4.143 0-7.5-3.358-7.5-7.5s3.357-7.5 7.5-7.5h8.723c4.143 0 7.5 3.358 7.5 7.5s-3.357 7.5-7.5 7.5z" fill="#a2abb8"/></g><g><path d="m461.44 152.581h-21.018l9.115-9.115c2.929-2.929 2.929-7.678 0-10.606-2.93-2.929-7.678-2.929-10.607 0l-19.722 19.722h-46.429l32.831-32.831h27.891c4.143 0 7.5-3.358 7.5-7.5s-3.357-7.5-7.5-7.5h-12.891l14.863-14.863c2.929-2.929 2.929-7.677 0-10.606-2.93-2.929-7.678-2.929-10.607 0l-14.862 14.862v-12.891c0-4.142-3.357-7.5-7.5-7.5s-7.5 3.358-7.5 7.5v27.891l-32.087 32.087v-44.944l19.722-19.721c2.93-2.929 2.93-7.678.001-10.607-2.929-2.928-7.678-2.93-10.606 0l-9.116 9.116v-21.019c0-4.142-3.358-7.5-7.5-7.5-4.143 0-7.5 3.358-7.5 7.5v21.019l-9.115-9.115c-2.93-2.929-7.678-2.929-10.607 0s-2.929 7.677 0 10.606l19.723 19.723v45.379l-30.698-30.698v-27.892c0-4.142-3.357-7.5-7.5-7.5s-7.5 3.358-7.5 7.5v12.891l-15.944-15.944c-2.93-2.929-7.678-2.929-10.607 0s-2.929 7.677 0 10.606l15.945 15.945h-12.895c-4.143 0-7.5 3.358-7.5 7.5s3.357 7.5 7.5 7.5h27.891l31.005 31.005h-43.413l-19.722-19.722c-2.93-2.929-7.678-2.929-10.607 0s-2.929 7.677 0 10.606l9.116 9.115h-22.548c-4.143 0-7.5 3.358-7.5 7.5s3.357 7.5 7.5 7.5h22.548l-9.116 9.116c-2.929 2.929-2.929 7.678 0 10.606 1.465 1.465 3.385 2.197 5.304 2.197s3.839-.732 5.304-2.197l19.722-19.722h42.362l-29.955 29.955h-27.891c-4.143 0-7.5 3.358-7.5 7.5s3.357 7.5 7.5 7.5h12.891l-15.945 15.945c-2.929 2.929-2.929 7.678 0 10.607 1.465 1.465 3.385 2.197 5.304 2.197s3.839-.732 5.304-2.197l15.944-15.944v12.891c0 4.142 3.357 7.5 7.5 7.5s7.5-3.358 7.5-7.5v-27.891l30.698-30.698v43.848l-19.723 19.723c-2.929 2.929-2.929 7.678 0 10.607 1.465 1.465 3.385 2.197 5.304 2.197s3.839-.732 5.304-2.197l9.115-9.115v22.549c0 4.142 3.357 7.5 7.5 7.5 4.142 0 7.5-3.358 7.5-7.5v-22.549l9.116 9.116c1.464 1.464 3.384 2.197 5.303 2.197s3.839-.732 5.304-2.197c2.929-2.929 2.929-7.678-.001-10.607l-19.722-19.721v-43.413l32.087 32.087v27.891c0 4.142 3.357 7.5 7.5 7.5s7.5-3.358 7.5-7.5v-12.891l14.862 14.862c1.465 1.465 3.385 2.197 5.304 2.197s3.839-.732 5.304-2.197c2.929-2.929 2.929-7.678 0-10.606l-14.863-14.863h12.891c4.143 0 7.5-3.358 7.5-7.5s-3.357-7.5-7.5-7.5h-27.891l-31.78-31.78h45.378l19.722 19.722c1.465 1.465 3.385 2.197 5.304 2.197s3.839-.732 5.304-2.197c2.929-2.929 2.929-7.677 0-10.606l-9.116-9.116h21.018c4.143 0 7.5-3.358 7.5-7.5s-3.357-7.502-7.5-7.502z" fill="#bed9fd"/></g><g><path d="m127.706 456.153c-32.482 0-58.908-26.497-58.908-59.066 0-20.75 11.078-40.232 28.91-50.842 7.725-4.597 12.461-12.937 12.461-21.944v-265.439c0-9.522 7.37-17.642 16.859-18.002 9.977-.379 18.214 7.649 18.214 17.57v265.872c0 9.007 4.736 17.347 12.461 21.944 17.832 10.611 28.91 30.092 28.91 50.842.001 32.569-26.425 59.065-58.907 59.065z" fill="#9ec8fc"/></g><g><path d="m157.704 346.245c-7.725-4.597-12.462-12.937-12.462-21.944v-43.468h-35.073v43.468c0 9.007-4.736 17.347-12.461 21.944-17.832 10.611-28.91 30.092-28.91 50.842 0 32.569 26.426 59.066 58.908 59.066s58.908-26.497 58.908-59.066c0-20.749-11.078-40.231-28.91-50.842z" fill="#5392f9"/></g><g><path d="m157.704 346.245c-7.725-4.597-12.462-12.937-12.462-21.944v-43.468h-30v43.468c0 9.007 4.736 17.347 12.462 21.944 17.832 10.611 28.91 30.092 28.91 50.842 0 27.373-18.668 50.45-43.908 57.119 4.792 1.266 9.817 1.947 15 1.947 32.482 0 58.908-26.497 58.908-59.066 0-20.749-11.078-40.231-28.91-50.842z" fill="#4981f8"/></g></g></svg>