<svg height="512" viewBox="0 0 64 64" width="512" xmlns="http://www.w3.org/2000/svg"><g id="Layer_18" data-name="Layer 18"><path d="m39.055 35.905a14 14 0 1 1 -14.11 0l.044-26.905a7.011 7.011 0 0 1 7.011-7 7.011 7.011 0 0 1 7.011 7z" fill="#cad4e6"/><path d="m45.9 49.719a14 14 0 0 0 -6.842-13.814l-.047-26.905a7.013 7.013 0 0 0 -5.011-6.707 7.013 7.013 0 0 0 -5.011 6.707l-.044 26.905a13.99 13.99 0 0 0 5.084 25.939 14.038 14.038 0 0 0 11.871-12.125z" fill="#d5dbe5"/><path d="m29 9.107a3.055 3.055 0 0 1 3-3.107 3.055 3.055 0 0 1 3 3.107l-.026 29.343a10 10 0 1 1 -5.974.008z" fill="#f44a6e"/><path d="m34.974 38.45.026-29.343a3.114 3.114 0 0 0 -1.5-2.676 3.114 3.114 0 0 0 -1.5 2.676v29.351a9.994 9.994 0 0 0 1.5 19.417 9.994 9.994 0 0 0 1.474-19.425z" fill="#ff5773"/><path d="m29 12v-2.893a3.055 3.055 0 0 1 3-3.107 3.055 3.055 0 0 1 3 3.107v2.893z" fill="#97a6bf"/><path d="m32 6v6h3v-2.893a3.055 3.055 0 0 0 -3-3.107z" fill="#bac5d9"/><path d="m39.013 10.745a11 11 0 1 1 .033 20.523" fill="#fac600"/><path d="m40 12c-.332 0-.66.017-.984.046l.03 19.222a10.984 10.984 0 0 0 8.454-.238 10.99 10.99 0 0 0 -7.5-19.03z" fill="#fed402"/><path d="m32 55a7.008 7.008 0 0 0 6.6-4.679l-1.886-.662a5.008 5.008 0 0 1 -4.714 3.341z"/><path d="m36 9.107a4 4 0 1 0 -8 0v28.643a11 11 0 1 0 7.976-.011zm-4-2.107a2.057 2.057 0 0 1 2 2.106v1.894h-4v-1.893a2.058 2.058 0 0 1 2-2.107zm9 41a9 9 0 1 1 -11.7-8.588 1 1 0 0 0 .7-.954v-25.458h4l-.023 25.448a1 1 0 0 0 .7.956 8.959 8.959 0 0 1 6.323 8.596z"/><path d="m55 21a11.972 11.972 0 0 0 -14.988-11.614v-.386a8.012 8.012 0 0 0 -16.024 0l-.043 26.345a15 15 0 0 0 -1.945 23.838 14.823 14.823 0 0 0 9.975 3.817 15.552 15.552 0 0 0 1.744-.1 15 15 0 0 0 6.336-27.56l-.005-2.72a11.973 11.973 0 0 0 14.95-11.62zm-10.1 28.6a13 13 0 1 1 -19.451-12.831 1 1 0 0 0 .495-.862l.044-26.907a6.012 6.012 0 0 1 12.024 0l.044 26.906a1 1 0 0 0 .5.862 13.056 13.056 0 0 1 6.344 12.832zm-4.888-38.14a10 10 0 1 1 .031 19.088z"/><path d="m42 2h2v5h-2z"/><path d="m57 20h5v2h-5z"/><path d="m52.167 8.333h5v2h-5z" transform="matrix(.707 -.707 .707 .707 9.412 41.389)"/><path d="m53.667 30.167h2v4.999h-2z" transform="matrix(.707 -.707 .707 .707 -7.087 48.223)"/></g></svg>